<?xml version="1.0" encoding="UTF-8"?><svg id="Layer_2" xmlns="http://www.w3.org/2000/svg" viewBox="0 0 656 656"><defs><style>.cls-1{fill:#3cc8ec;}.cls-2{fill:#fffff9;}.cls-3{fill:none;}.cls-4{fill:#161616;}</style></defs><g id="Layer_1-2"><path class="cls-2" d="m327.72,642.5c-83.95-.08-162.85-32.81-222.18-92.19C46.19,490.91,13.5,411.96,13.5,328S46.19,165.09,105.54,105.69C164.88,46.31,243.78,13.57,327.73,13.5h.27c84.01,0,162.98,32.71,222.38,92.11,59.4,59.4,92.12,138.38,92.12,222.39s-32.71,162.98-92.12,222.38-138.38,92.12-222.38,92.12h-.28Zm13.55-202.4c15.44-.3,28.5-2.92,38.83-7.79,10.61-5,18.32-11.47,23.57-19.79,5.26-8.34,7.82-17.67,7.82-28.54,0-9.9-2.03-18.4-6.03-25.25-4.12-7.04-9.26-12.34-15.74-16.19-6.52-3.88-13.29-5.92-20.68-6.24l-12.92-.55v-26.2l10.54-2.37c7.05-1.58,13.35-4.27,18.74-7.98,5.08-3.5,8.98-7.89,11.91-13.42,2.88-5.42,4.33-12.01,4.33-19.58,0-10.09-2.36-18.67-7.22-26.25-4.82-7.52-12.03-13.33-22.05-17.78-8.43-3.74-18.86-6.01-31.11-6.79v224.7Z"/><path class="cls-4" d="m328,27c166.24,0,301,134.76,301,301s-134.76,301-301,301c-.08,0-.15,0-.23,0-166.13-.12-300.77-134.84-300.77-301S161.64,27.13,327.77,27c.08,0,.15,0,.23,0m-.23,426.63h10.46c18.87,0,34.74-3.03,47.62-9.11,12.88-6.07,22.62-14.34,29.23-24.8,6.6-10.46,9.91-22.38,9.91-35.75,0-12.39-2.63-23.07-7.88-32.06-5.25-8.98-12.08-15.98-20.49-20.98-8.41-5-17.41-7.71-27.01-8.12v-2.46c8.78-1.97,16.59-5.31,23.44-10.03,6.85-4.72,12.24-10.79,16.18-18.21,3.94-7.42,5.91-16.06,5.91-25.9,0-12.63-3.12-23.81-9.35-33.53-6.24-9.72-15.55-17.33-27.93-22.83-12.39-5.5-27.85-8.25-46.39-8.25h-3.69v252.03m.23-453.63c-.14,0-.29,0-.43,0-44.19.06-87.05,8.76-127.41,25.85-39.03,16.53-74.08,40.18-104.17,70.29-30.09,30.11-53.72,65.18-70.22,104.22C8.67,240.81,0,283.75,0,328s8.67,87.19,25.76,127.63c16.51,39.05,40.13,74.11,70.22,104.22,30.09,30.11,65.14,53.76,104.17,70.29,40.37,17.1,83.23,25.8,127.41,25.85.14,0,.29,0,.43,0,44.27,0,87.23-8.68,127.68-25.79,39.06-16.52,74.14-40.17,104.25-70.28,30.11-30.11,53.76-65.19,70.28-104.25,17.11-40.45,25.79-83.41,25.79-127.68s-8.68-87.23-25.79-127.68c-16.52-39.06-40.17-74.14-70.28-104.25-30.11-30.11-65.19-53.76-104.25-70.28C415.23,8.68,372.27,0,328,0h0Zm26.77,296.02v-65.28c4.53.95,8.58,2.22,12.14,3.8,7.52,3.34,12.81,7.5,16.16,12.72,3.42,5.33,5.08,11.53,5.08,18.96,0,5.34-.93,9.8-2.76,13.25-1.89,3.56-4.39,6.39-7.64,8.63-4.02,2.77-8.61,4.7-14.04,5.92l-8.93,2h0Zm0,129.55v-76.36l13.68.59c5.11.22,9.81,1.64,14.36,4.35,4.45,2.65,8.05,6.38,10.98,11.4,2.82,4.82,4.19,10.85,4.19,18.43,0,8.24-1.88,15.22-5.74,21.33-3.84,6.08-9.7,10.92-17.91,14.79-5.49,2.59-12.04,4.42-19.57,5.47h0Z"/><path class="cls-1" d="m27,328c0,166.16,134.64,300.87,300.77,301V27c-166.13.12-300.77,134.84-300.77,301Z"/><path class="cls-3" d="m283.84,244.68v62.39h39.5c1.51,0,2.99-.07,4.43-.18v-62.12c-1.12-.06-2.27-.09-3.45-.09h-40.49Z"/><path class="cls-3" d="m283.84,410.07h43.44c.17,0,.33,0,.49,0v-66.94h-43.93v66.94Z"/><path class="cls-2" d="m327.28,410.07h-43.44v-66.94h43.93v-36.24c-1.45.11-2.92.18-4.43.18h-39.5v-62.39h40.49c1.18,0,2.32.04,3.45.09v-43.16h-97.22v252.03h97.22v-43.57c-.17,0-.33,0-.49,0Z"/><path class="cls-2" d="m359.77,401.51c6.81-5.7,10.21-13.31,10.21-22.83,0-6.97-1.68-13.12-5.04-18.46-3.37-5.33-8.14-9.52-14.34-12.55-6.2-3.03-13.56-4.55-22.09-4.55h-.74v66.94c14.59-.06,25.26-2.91,32-8.55Z"/><path class="cls-2" d="m342.85,303.19c5.7-2.58,10.21-6.25,13.54-11.01,3.32-4.76,4.98-10.46,4.98-17.11,0-9.11-3.22-16.45-9.66-22.03-5.8-5.02-13.78-7.78-23.93-8.28v62.12c5.52-.42,10.55-1.65,15.07-3.7Z"/><path class="cls-4" d="m385.86,444.52c12.88-6.07,22.62-14.34,29.23-24.8,6.6-10.46,9.91-22.38,9.91-35.75,0-12.39-2.63-23.07-7.88-32.06-5.25-8.98-12.08-15.98-20.49-20.98-8.41-5-17.41-7.71-27.01-8.12v-2.46c8.78-1.97,16.59-5.31,23.44-10.03,6.85-4.72,12.24-10.79,16.18-18.21,3.94-7.42,5.91-16.06,5.91-25.9,0-12.63-3.12-23.81-9.35-33.53-6.24-9.72-15.55-17.33-27.93-22.83-12.39-5.5-27.85-8.25-46.39-8.25h-3.69v43.16c10.15.5,18.14,3.26,23.93,8.28,6.44,5.58,9.66,12.92,9.66,22.03,0,6.65-1.66,12.35-4.98,17.11-3.32,4.76-7.84,8.43-13.54,11.01-4.52,2.05-9.55,3.27-15.07,3.7v36.24h.74c8.53,0,15.89,1.52,22.09,4.55,6.19,3.04,10.97,7.22,14.34,12.55,3.36,5.33,5.04,11.49,5.04,18.46,0,9.52-3.41,17.13-10.21,22.83-6.73,5.64-17.4,8.48-32,8.55v43.57h10.46c18.87,0,34.74-3.03,47.62-9.11Z"/><path class="cls-3" d="m385.86,444.52c12.88-6.07,22.62-14.34,29.23-24.8,6.6-10.46,9.91-22.38,9.91-35.75,0-12.39-2.63-23.07-7.88-32.06-5.25-8.98-12.08-15.98-20.49-20.98-8.41-5-17.41-7.71-27.01-8.12v-2.46c8.78-1.97,16.59-5.31,23.44-10.03,6.85-4.72,12.24-10.79,16.18-18.21,3.94-7.42,5.91-16.06,5.91-25.9,0-12.63-3.12-23.81-9.35-33.53-6.24-9.72-15.55-17.33-27.93-22.83-12.39-5.5-27.85-8.25-46.39-8.25h-3.69v252.03h10.46c18.87,0,34.74-3.03,47.62-9.11Z"/><path class="cls-2" d="m331.46,201.6c18.54,0,34,2.75,46.39,8.25,12.39,5.5,21.7,13.11,27.93,22.83,6.23,9.72,9.35,20.9,9.35,33.53,0,9.84-1.97,18.48-5.91,25.9-3.94,7.43-9.33,13.5-16.18,18.21-6.85,4.72-14.67,8.06-23.44,10.03v2.46c9.6.41,18.6,3.12,27.01,8.12,8.41,5,15.24,12,20.49,20.98,5.25,8.98,7.88,19.67,7.88,32.06,0,13.37-3.3,25.29-9.91,35.75-6.6,10.46-16.35,18.73-29.23,24.8-12.88,6.07-28.76,9.11-47.62,9.11h-10.46v175.37c.08,0,.15,0,.23,0,166.24,0,301-134.76,301-301S494.24,27,328,27c-.08,0-.15,0-.23,0v174.6h3.69Z"/></g></svg>