<svg width="25" height="25" viewBox="0 0 25 25" fill="none" xmlns="http://www.w3.org/2000/svg">
<path fill-rule="evenodd" clip-rule="evenodd" d="M9.05692 15.529C11.39 17.8013 15.1725 17.8013 17.5056 15.529C19.8386 13.2566 19.8386 9.57229 17.5056 7.2999C15.1725 5.0275 11.39 5.0275 9.05692 7.2999C6.72389 9.57229 6.72388 13.2566 9.05692 15.529ZM7.42175 17.1216C10.6579 20.2736 15.9046 20.2736 19.1408 17.1216C22.3769 13.9696 22.3769 8.85922 19.1408 5.70723C15.9046 2.55523 10.6579 2.55523 7.42175 5.70723C4.18563 8.85922 4.18563 13.9696 7.42175 17.1216Z" fill="#161616"/>
<path fill-rule="evenodd" clip-rule="evenodd" d="M0.454814 22.953L7.83276 15.7668L9.46777 17.3593L2.08983 24.5455L0.454814 22.953Z" fill="#161616"/>
</svg>
